<?xml version="1.0" encoding="UTF-8"?>
<svg xmlns="http://www.w3.org/2000/svg" viewBox="0 0 1600 1100" width="1600" height="1100">
  <title>A-01 Planritning – Tillbyggnad träregelstomme</title>
  <desc>Planritning A-01 anpassad efter referensexempel för bygglovsritningar i skala 1:100.</desc>
  <defs>
    <marker id="arrow" markerWidth="8" markerHeight="8" refX="4" refY="4" orient="auto">
      <path d="M0,0 L8,4 L0,8 z" fill="#222"/>
    </marker>
  </defs>
  <style>
    .sheet { fill:#fff; stroke:#000; stroke-width:2; }
    .frame { fill:none; stroke:#000; stroke-width:1.2; }
    .wall { fill:none; stroke:#111; stroke-width:4; stroke-linejoin:round; }
    .intwall { fill:none; stroke:#444; stroke-width:2.2; }
    .opening { fill:#fff; stroke:#111; stroke-width:1.5; }
    .window-line { stroke:#777; stroke-width:1.2; }
    .door { fill:none; stroke:#111; stroke-width:1.4; }
    .dim { fill:none; stroke:#666; stroke-width:1.1; }
    .guide { fill:none; stroke:#999; stroke-width:1; stroke-dasharray:6 5; }
    .section { fill:none; stroke:#222; stroke-width:1.4; stroke-dasharray:10 6 2 6; }
    .text { font: 22px 'Arial', sans-serif; fill:#111; }
    .small { font: 16px 'Arial', sans-serif; fill:#333; }
    .tiny { font: 13px 'Arial', sans-serif; fill:#444; }
    .room { font: 18px 'Arial', sans-serif; fill:#111; text-anchor:middle; }
    .title { font: 40px Georgia, 'Times New Roman', serif; fill:#2d3548; font-weight:700; }
    .dimtext { font: 17px 'Arial', sans-serif; fill:#444; }
  </style>

  <rect x="20" y="20" width="1560" height="1060" class="sheet"/>
  <text x="70" y="80" class="title">Planritning, skala 1:100</text>
  <text x="70" y="115" class="small">A-01 Tillbyggnad med måttsättning, rumsfunktioner och sektionsmarkering</text>

  <rect x="60" y="145" width="1180" height="820" class="frame"/>

  <g transform="translate(145,220)">
    <polygon class="wall" points="0,0 840,0 840,260 1139,260 1139,804 598,804 598,418 0,418 0,0"/>
    <polygon class="wall" points="25,25 815,25 815,286 1114,286 1114,779 623,779 623,392 25,392 25,25"/>

    <line x1="0" y1="405" x2="598" y2="405" class="guide"/>
    <text x="300" y="438" class="tiny" text-anchor="middle">BEFINTLIG VÄGG</text>

    <rect x="160" y="0" width="80" height="25" fill="#fff"/>
    <line x1="160" y1="25" x2="160" y2="0" class="door"/>
    <path d="M160,25 A80,80 0 0 1 240,25" class="door"/>
    <text x="200" y="55" class="small" text-anchor="middle">D1</text>

    <rect x="440" y="0" width="96" height="25" class="opening"/>
    <line x1="450" y1="8" x2="526" y2="8" class="window-line"/>
    <line x1="450" y1="17" x2="526" y2="17" class="window-line"/>
    <text x="488" y="55" class="small" text-anchor="middle">F1</text>

    <rect x="0" y="225" width="25" height="80" class="opening"/>
    <line x1="8" y1="235" x2="8" y2="295" class="window-line"/>
    <line x1="17" y1="235" x2="17" y2="295" class="window-line"/>
    <text x="42" y="270" class="small">F2</text>

    <rect x="1114" y="455" width="25" height="96" class="opening"/>
    <line x1="1122" y1="465" x2="1122" y2="541" class="window-line"/>
    <line x1="1131" y1="465" x2="1131" y2="541" class="window-line"/>
    <text x="1082" y="510" class="small">F3</text>

    <rect x="735" y="779" width="255" height="25" class="opening"/>
    <text x="862" y="770" class="small" text-anchor="middle">Ö1</text>

    <line x1="310" y1="25" x2="310" y2="392" class="intwall"/>
    <line x1="322" y1="25" x2="322" y2="392" class="intwall"/>
    <line x1="310" y1="210" x2="598" y2="210" class="intwall"/>
    <line x1="310" y1="222" x2="598" y2="222" class="intwall"/>

    <text x="155" y="210" class="room">Allrum</text>
    <text x="455" y="130" class="room">Sovrum/kök</text>
    <text x="455" y="320" class="room">Passage</text>
    <text x="872" y="540" class="room">Arbetsrum</text>

    <text x="86" y="355" class="tiny">FG +68.12</text>

    <line x1="210" y1="-55" x2="210" y2="455" class="section"/>
    <circle cx="210" cy="-55" r="12" fill="#fff" stroke="#111" stroke-width="1.5"/>
    <circle cx="210" cy="455" r="12" fill="#fff" stroke="#111" stroke-width="1.5"/>
    <text x="210" y="-51" class="tiny" text-anchor="middle">A</text>
    <text x="210" y="459" class="tiny" text-anchor="middle">A</text>

    <line x1="0" y1="-45" x2="840" y2="-45" class="dim"/>
    <line x1="0" y1="-15" x2="0" y2="-58" class="dim"/>
    <line x1="840" y1="-15" x2="840" y2="-58" class="dim"/>
    <text x="420" y="-54" class="dimtext" text-anchor="middle">10 500</text>

    <line x1="-48" y1="0" x2="-48" y2="418" class="dim"/>
    <line x1="-18" y1="0" x2="-60" y2="0" class="dim"/>
    <line x1="-18" y1="418" x2="-60" y2="418" class="dim"/>
    <text x="-60" y="215" class="dimtext" transform="rotate(-90 -60 215)">4 500</text>

    <line x1="840" y1="245" x2="1139" y2="245" class="dim"/>
    <line x1="840" y1="260" x2="840" y2="228" class="dim"/>
    <line x1="1139" y1="260" x2="1139" y2="228" class="dim"/>
    <text x="990" y="220" class="dimtext" text-anchor="middle">3 740</text>

    <line x1="1180" y1="260" x2="1180" y2="804" class="dim"/>
    <line x1="1142" y1="260" x2="1192" y2="260" class="dim"/>
    <line x1="1142" y1="804" x2="1192" y2="804" class="dim"/>
    <text x="1194" y="545" class="dimtext" transform="rotate(-90 1194 545)">6 480</text>

    <line x1="598" y1="840" x2="1139" y2="840" class="dim"/>
    <line x1="598" y1="804" x2="598" y2="852" class="dim"/>
    <line x1="1139" y1="804" x2="1139" y2="852" class="dim"/>
    <text x="868" y="868" class="dimtext" text-anchor="middle">6 760</text>

    <g transform="translate(1015,-25)">
      <line x1="0" y1="40" x2="0" y2="5" stroke="#111" stroke-width="1.5" marker-end="url(#arrow)"/>
      <text x="0" y="58" class="small" text-anchor="middle">N</text>
    </g>
  </g>

  <g transform="translate(1265,820)">
    <rect x="0" y="0" width="260" height="145" class="frame"/>
    <line x1="0" y1="36" x2="260" y2="36" class="frame"/>
    <line x1="0" y1="72" x2="260" y2="72" class="frame"/>
    <line x1="0" y1="108" x2="260" y2="108" class="frame"/>
    <line x1="88" y1="0" x2="88" y2="145" class="frame"/>
    <text x="12" y="24" class="tiny">Ritning</text>
    <text x="100" y="24" class="tiny">Planritning</text>
    <text x="12" y="60" class="tiny">Ritn.nr</text>
    <text x="100" y="60" class="tiny">A-01</text>
    <text x="12" y="96" class="tiny">Skala</text>
    <text x="100" y="96" class="tiny">1:100</text>
    <text x="12" y="132" class="tiny">Datum</text>
    <text x="100" y="132" class="tiny">2026-07-05</text>
  </g>
</svg>
